<?xml version="1.0" encoding="UTF-8" standalone="no"?>
<!DOCTYPE svg PUBLIC "-//W3C//DTD SVG 1.1//EN"
 "http://www.w3.org/Graphics/SVG/1.1/DTD/svg11.dtd">
<!-- Generated by graphviz version 2.43.0 (0)
 -->
<!-- Title: adapter_pdp Pages: 1 -->
<svg width="1597pt" height="234pt"
 viewBox="0.00 0.00 1597.12 233.85" xmlns="http://www.w3.org/2000/svg" xmlns:xlink="http://www.w3.org/1999/xlink">
<g id="graph0" class="graph" transform="scale(1 1) rotate(0) translate(4 229.85)">
<title>adapter_pdp</title>
<polygon fill="white" stroke="transparent" points="-4,4 -4,-229.85 1593.12,-229.85 1593.12,4 -4,4"/>
<!-- AR -->
<g id="node1" class="node">
<title>AR</title>
<polygon fill="none" stroke="black" points="0,-45.65 0,-160.65 306,-160.65 306,-45.65 0,-45.65"/>
<text text-anchor="middle" x="68.5" y="-99.45" font-family="Helvetica,sans-Serif" font-size="14.00">AdmissionReview</text>
<polyline fill="none" stroke="black" points="137,-45.65 137,-160.65 "/>
<text text-anchor="middle" x="221.5" y="-145.45" font-family="Helvetica,sans-Serif" font-size="14.00">user: Alice</text>
<polyline fill="none" stroke="black" points="137,-137.65 306,-137.65 "/>
<text text-anchor="middle" x="221.5" y="-122.45" font-family="Helvetica,sans-Serif" font-size="14.00">groups: [dev, ops]</text>
<polyline fill="none" stroke="black" points="137,-114.65 306,-114.65 "/>
<text text-anchor="middle" x="221.5" y="-99.45" font-family="Helvetica,sans-Serif" font-size="14.00">verb: create</text>
<polyline fill="none" stroke="black" points="137,-91.65 306,-91.65 "/>
<text text-anchor="middle" x="221.5" y="-76.45" font-family="Helvetica,sans-Serif" font-size="14.00">resource: Deployment</text>
<polyline fill="none" stroke="black" points="137,-68.65 306,-68.65 "/>
<text text-anchor="middle" x="221.5" y="-53.45" font-family="Helvetica,sans-Serif" font-size="14.00">namespace: prod</text>
</g>
<!-- XACML -->
<g id="node2" class="node">
<title>XACML</title>
<polygon fill="none" stroke="black" points="343,-68.65 343,-137.65 755,-137.65 755,-68.65 343,-68.65"/>
<text text-anchor="middle" x="405.5" y="-99.45" font-family="Helvetica,sans-Serif" font-size="14.00">XACML Request</text>
<polyline fill="none" stroke="black" points="468,-68.65 468,-137.65 "/>
<text text-anchor="middle" x="611.5" y="-122.45" font-family="Helvetica,sans-Serif" font-size="14.00">Subject: user=Alice, groups=[dev,ops]</text>
<polyline fill="none" stroke="black" points="468,-114.65 755,-114.65 "/>
<text text-anchor="middle" x="611.5" y="-99.45" font-family="Helvetica,sans-Serif" font-size="14.00">Resource: type=Deployment, ns=prod</text>
<polyline fill="none" stroke="black" points="468,-91.65 755,-91.65 "/>
<text text-anchor="middle" x="611.5" y="-76.45" font-family="Helvetica,sans-Serif" font-size="14.00">Action: verb=create</text>
</g>
<!-- AR&#45;&gt;XACML -->
<g id="edge1" class="edge">
<title>AR:user&#45;&gt;XACML:subj</title>
<path fill="none" stroke="black" stroke-dasharray="1,5" d="M306,-149.15C438.48,-149.15 603.06,-268.66 611.65,-149.37"/>
<polygon fill="black" stroke="black" points="615.16,-149.26 612,-139.15 608.16,-149.02 615.16,-149.26"/>
</g>
<!-- AR&#45;&gt;XACML -->
<g id="edge2" class="edge">
<title>AR:res&#45;&gt;XACML:resAttr</title>
<path fill="none" stroke="black" stroke-dasharray="1,5" d="M306,-80.15C316.76,-80.15 318.49,-86.58 325,-95.15 337.53,-111.65 325.75,-126.67 343,-138.15 495.44,-239.6 623.68,-265.77 755,-138.15 758.57,-134.68 761.17,-121.29 760.53,-112.12"/>
<polygon fill="black" stroke="black" points="763.64,-110.49 756,-103.15 757.39,-113.65 763.64,-110.49"/>
</g>
<!-- AR&#45;&gt;XACML -->
<g id="edge3" class="edge">
<title>AR:ns&#45;&gt;XACML:resAttr</title>
<path fill="none" stroke="black" stroke-dasharray="1,5" d="M306,-57.15C322.92,-57.15 317.78,-74.84 325,-90.15 334.72,-110.76 324.27,-125.17 343,-138.15 493.5,-242.45 623.68,-265.77 755,-138.15 758.57,-134.68 761.17,-121.29 760.53,-112.12"/>
<polygon fill="black" stroke="black" points="763.64,-110.49 756,-103.15 757.39,-113.65 763.64,-110.49"/>
</g>
<!-- AR&#45;&gt;XACML -->
<g id="edge4" class="edge">
<title>AR:verb&#45;&gt;XACML:act</title>
<path fill="none" stroke="black" stroke-dasharray="1,5" d="M306,-103.15C315.76,-103.15 317.7,-98.63 325,-92.15 334.97,-83.3 331.09,-74.13 343,-68.15 446.7,-16.06 602.55,48.5 611.59,-57.12"/>
<polygon fill="black" stroke="black" points="608.09,-57.3 612,-67.15 615.09,-57.01 608.09,-57.3"/>
</g>
<!-- PDP -->
<g id="node3" class="node">
<title>PDP</title>
<ellipse fill="none" stroke="black" cx="1004.48" cy="-103.15" rx="107.46" ry="26.74"/>
<text text-anchor="middle" x="1004.48" y="-106.95" font-family="Helvetica,sans-Serif" font-size="14.00">AuthzForce PDP</text>
<text text-anchor="middle" x="1004.48" y="-91.95" font-family="Helvetica,sans-Serif" font-size="14.00">(XACML Evaluation)</text>
</g>
<!-- XACML&#45;&gt;PDP -->
<g id="edge5" class="edge">
<title>XACML&#45;&gt;PDP</title>
<path fill="none" stroke="black" d="M755.18,-103.15C800.26,-103.15 846.49,-103.15 886.65,-103.15"/>
<polygon fill="black" stroke="black" points="886.72,-106.65 896.72,-103.15 886.72,-99.65 886.72,-106.65"/>
<text text-anchor="middle" x="826" y="-106.95" font-family="Helvetica,sans-Serif" font-size="14.00">XACML request</text>
</g>
<!-- Resp -->
<g id="node4" class="node">
<title>Resp</title>
<ellipse fill="none" stroke="black" cx="1442.04" cy="-103.15" rx="147.16" ry="26.74"/>
<text text-anchor="middle" x="1442.04" y="-106.95" font-family="Helvetica,sans-Serif" font-size="14.00">AdmissionReview Response</text>
<text text-anchor="middle" x="1442.04" y="-91.95" font-family="Helvetica,sans-Serif" font-size="14.00">(Allowed or Denied)</text>
</g>
<!-- PDP&#45;&gt;Resp -->
<g id="edge6" class="edge">
<title>PDP&#45;&gt;Resp</title>
<path fill="none" stroke="black" d="M1112.03,-103.15C1163.94,-103.15 1227.38,-103.15 1284.65,-103.15"/>
<polygon fill="black" stroke="black" points="1284.9,-106.65 1294.9,-103.15 1284.9,-99.65 1284.9,-106.65"/>
<text text-anchor="middle" x="1203.46" y="-106.95" font-family="Helvetica,sans-Serif" font-size="14.00">Permit/Deny decision</text>
</g>
</g>
</svg>
