<?xml version="1.0" encoding="UTF-8" standalone="no"?>
<!DOCTYPE svg PUBLIC "-//W3C//DTD SVG 1.1//EN"
 "http://www.w3.org/Graphics/SVG/1.1/DTD/svg11.dtd">
<!-- Generated by graphviz version 2.43.0 (0)
 -->
<!-- Title: counterexample Pages: 1 -->
<svg width="882pt" height="383pt"
 viewBox="0.00 0.00 881.80 383.17" xmlns="http://www.w3.org/2000/svg" xmlns:xlink="http://www.w3.org/1999/xlink">
<g id="graph0" class="graph" transform="scale(1 1) rotate(0) translate(4 379.17)">
<title>counterexample</title>
<polygon fill="white" stroke="transparent" points="-4,4 -4,-379.17 877.8,-379.17 877.8,4 -4,4"/>
<!-- inv -->
<g id="node1" class="node">
<title>inv</title>
<ellipse fill="none" stroke="black" cx="224.86" cy="-348.3" rx="224.72" ry="26.74"/>
<text text-anchor="middle" x="224.86" y="-352.1" font-family="Helvetica,sans-Serif" font-size="14.00">Security invariant φ:</text>
<text text-anchor="middle" x="224.86" y="-337.1" font-family="Helvetica,sans-Serif" font-size="14.00">image registry must equal &#39;myregistry.com&#39;</text>
</g>
<!-- solver -->
<g id="node3" class="node">
<title>solver</title>
<ellipse fill="none" stroke="black" cx="447.86" cy="-257.56" rx="90.52" ry="26.74"/>
<text text-anchor="middle" x="447.86" y="-261.36" font-family="Helvetica,sans-Serif" font-size="14.00">SMT Solver (Z3)</text>
<text text-anchor="middle" x="447.86" y="-246.36" font-family="Helvetica,sans-Serif" font-size="14.00">checks φ vs. π</text>
</g>
<!-- inv&#45;&gt;solver -->
<g id="edge1" class="edge">
<title>inv&#45;&gt;solver</title>
<path fill="none" stroke="black" d="M287.27,-322.47C318.1,-310.2 355.18,-295.44 385.94,-283.2"/>
<polygon fill="black" stroke="black" points="387.28,-286.44 395.27,-279.49 384.69,-279.94 387.28,-286.44"/>
</g>
<!-- pol -->
<g id="node2" class="node">
<title>pol</title>
<ellipse fill="none" stroke="black" cx="670.86" cy="-348.3" rx="202.88" ry="26.74"/>
<text text-anchor="middle" x="670.86" y="-352.1" font-family="Helvetica,sans-Serif" font-size="14.00">Misconfigured policy π:</text>
<text text-anchor="middle" x="670.86" y="-337.1" font-family="Helvetica,sans-Serif" font-size="14.00">allows registry prefix &#39;myregistry.com*&#39;</text>
</g>
<!-- pol&#45;&gt;solver -->
<g id="edge2" class="edge">
<title>pol&#45;&gt;solver</title>
<path fill="none" stroke="black" d="M609.04,-322.7C578.2,-310.43 540.99,-295.62 510.09,-283.33"/>
<polygon fill="black" stroke="black" points="511.31,-280.04 500.72,-279.6 508.72,-286.55 511.31,-280.04"/>
</g>
<!-- cex -->
<g id="node4" class="node">
<title>cex</title>
<ellipse fill="none" stroke="black" cx="447.86" cy="-142.22" rx="210.94" ry="37.45"/>
<text text-anchor="middle" x="447.86" y="-153.52" font-family="Helvetica,sans-Serif" font-size="14.00">Counterexample model:</text>
<text text-anchor="middle" x="447.86" y="-138.52" font-family="Helvetica,sans-Serif" font-size="14.00">registry = &#39;myregistry.com.attacker.com&#39;</text>
<text text-anchor="middle" x="447.86" y="-123.52" font-family="Helvetica,sans-Serif" font-size="14.00">(violates φ, allowed by π)</text>
</g>
<!-- solver&#45;&gt;cex -->
<g id="edge3" class="edge">
<title>solver&#45;&gt;cex</title>
<path fill="none" stroke="black" d="M447.86,-230.56C447.86,-218.58 447.86,-203.99 447.86,-190.18"/>
<polygon fill="black" stroke="black" points="451.36,-189.84 447.86,-179.84 444.36,-189.84 451.36,-189.84"/>
<text text-anchor="middle" x="496.86" y="-201.49" font-family="Helvetica,sans-Serif" font-size="14.00">finds violation</text>
</g>
<!-- misconf -->
<g id="node5" class="node">
<title>misconf</title>
<ellipse fill="none" stroke="black" cx="447.86" cy="-26.87" rx="205.12" ry="26.74"/>
<text text-anchor="middle" x="447.86" y="-30.67" font-family="Helvetica,sans-Serif" font-size="14.00">Identified misconfiguration:</text>
<text text-anchor="middle" x="447.86" y="-15.67" font-family="Helvetica,sans-Serif" font-size="14.00">prefix&#45;match logic in policy is too broad</text>
</g>
<!-- cex&#45;&gt;misconf -->
<g id="edge4" class="edge">
<title>cex&#45;&gt;misconf</title>
<path fill="none" stroke="black" d="M447.86,-104.73C447.86,-91.66 447.86,-76.94 447.86,-63.9"/>
<polygon fill="black" stroke="black" points="451.36,-63.87 447.86,-53.87 444.36,-63.87 451.36,-63.87"/>
<text text-anchor="middle" x="530.36" y="-75.54" font-family="Helvetica,sans-Serif" font-size="14.00">highlights flaw in policy</text>
</g>
</g>
</svg>
