<?xml version="1.0" encoding="UTF-8" standalone="no"?>
<!DOCTYPE svg PUBLIC "-//W3C//DTD SVG 1.1//EN"
 "http://www.w3.org/Graphics/SVG/1.1/DTD/svg11.dtd">
<!-- Generated by graphviz version 2.43.0 (0)
 -->
<!-- Title: control_path Pages: 1 -->
<svg width="457pt" height="371pt"
 viewBox="0.00 0.00 457.00 371.00" xmlns="http://www.w3.org/2000/svg" xmlns:xlink="http://www.w3.org/1999/xlink">
<g id="graph0" class="graph" transform="scale(1 1) rotate(0) translate(4 367)">
<title>control_path</title>
<polygon fill="white" stroke="transparent" points="-4,4 -4,-367 453,-367 453,4 -4,4"/>
<!-- start -->
<g id="node1" class="node">
<title>start</title>
<ellipse fill="none" stroke="black" cx="315" cy="-345" rx="71.49" ry="18"/>
<text text-anchor="middle" x="315" y="-341.3" font-family="Helvetica,sans-Serif" font-size="14.00">User Request</text>
</g>
<!-- rbac -->
<g id="node2" class="node">
<title>rbac</title>
<polygon fill="none" stroke="black" points="315,-290 181,-252 315,-214 449,-252 315,-290"/>
<text text-anchor="middle" x="315" y="-255.8" font-family="Helvetica,sans-Serif" font-size="14.00">RBAC Authorizer</text>
<text text-anchor="middle" x="315" y="-240.8" font-family="Helvetica,sans-Serif" font-size="14.00">permits request?</text>
</g>
<!-- start&#45;&gt;rbac -->
<g id="edge1" class="edge">
<title>start&#45;&gt;rbac</title>
<path fill="none" stroke="black" d="M315,-326.88C315,-319.25 315,-309.83 315,-300.31"/>
<polygon fill="black" stroke="black" points="318.5,-300.02 315,-290.02 311.5,-300.02 318.5,-300.02"/>
</g>
<!-- abac -->
<g id="node3" class="node">
<title>abac</title>
<polygon fill="none" stroke="black" points="165,-163 0,-125 165,-87 330,-125 165,-163"/>
<text text-anchor="middle" x="165" y="-128.8" font-family="Helvetica,sans-Serif" font-size="14.00">ABAC Webhook (PDP)</text>
<text text-anchor="middle" x="165" y="-113.8" font-family="Helvetica,sans-Serif" font-size="14.00">permits request?</text>
</g>
<!-- rbac&#45;&gt;abac -->
<g id="edge2" class="edge">
<title>rbac&#45;&gt;abac</title>
<path fill="none" stroke="black" d="M281.71,-223.26C259.92,-205.1 231.24,-181.2 207.77,-161.64"/>
<polygon fill="black" stroke="black" points="209.95,-158.9 200.02,-155.19 205.46,-164.28 209.95,-158.9"/>
<text text-anchor="middle" x="271.5" y="-184.8" font-family="Helvetica,sans-Serif" font-size="14.00">Permit</text>
</g>
<!-- denied -->
<g id="node5" class="node">
<title>denied</title>
<ellipse fill="none" stroke="black" cx="358" cy="-18" rx="81.79" ry="18"/>
<text text-anchor="middle" x="358" y="-14.3" font-family="Helvetica,sans-Serif" font-size="14.00">Request Denied</text>
</g>
<!-- rbac&#45;&gt;denied -->
<g id="edge3" class="edge">
<title>rbac&#45;&gt;denied</title>
<path fill="none" stroke="black" d="M325.55,-216.57C330.2,-200.42 335.4,-180.85 339,-163 347.08,-122.89 352.55,-75.77 355.47,-46.64"/>
<polygon fill="black" stroke="black" points="358.98,-46.71 356.47,-36.41 352.02,-46.03 358.98,-46.71"/>
<text text-anchor="middle" x="368.5" y="-121.3" font-family="Helvetica,sans-Serif" font-size="14.00">Deny</text>
</g>
<!-- allowed -->
<g id="node4" class="node">
<title>allowed</title>
<ellipse fill="none" stroke="black" cx="165" cy="-18" rx="85.29" ry="18"/>
<text text-anchor="middle" x="165" y="-14.3" font-family="Helvetica,sans-Serif" font-size="14.00">Request Allowed</text>
</g>
<!-- abac&#45;&gt;allowed -->
<g id="edge4" class="edge">
<title>abac&#45;&gt;allowed</title>
<path fill="none" stroke="black" d="M165,-86.98C165,-73.56 165,-58.65 165,-46.22"/>
<polygon fill="black" stroke="black" points="168.5,-46.04 165,-36.04 161.5,-46.04 168.5,-46.04"/>
<text text-anchor="middle" x="187.5" y="-57.8" font-family="Helvetica,sans-Serif" font-size="14.00">Permit</text>
</g>
<!-- abac&#45;&gt;denied -->
<g id="edge5" class="edge">
<title>abac&#45;&gt;denied</title>
<path fill="none" stroke="black" d="M213.2,-97.77C246.09,-79.88 289.06,-56.51 319.62,-39.88"/>
<polygon fill="black" stroke="black" points="321.57,-42.8 328.68,-34.95 318.23,-36.65 321.57,-42.8"/>
<text text-anchor="middle" x="309.5" y="-57.8" font-family="Helvetica,sans-Serif" font-size="14.00">Deny</text>
</g>
</g>
</svg>
