<?xml version="1.0" encoding="UTF-8" standalone="no"?>
<!DOCTYPE svg PUBLIC "-//W3C//DTD SVG 1.1//EN"
 "http://www.w3.org/Graphics/SVG/1.1/DTD/svg11.dtd">
<!-- Generated by graphviz version 2.43.0 (0)
 -->
<!-- Title: RBAC_ABAC_diagram Pages: 1 -->
<svg width="1044pt" height="410pt"
 viewBox="0.00 0.00 1044.19 410.21" xmlns="http://www.w3.org/2000/svg" xmlns:xlink="http://www.w3.org/1999/xlink">
<g id="graph0" class="graph" transform="scale(1 1) rotate(0) translate(4 406.21)">
<title>RBAC_ABAC_diagram</title>
<polygon fill="white" stroke="transparent" points="-4,4 -4,-406.21 1040.19,-406.21 1040.19,4 -4,4"/>
<g id="clust1" class="cluster">
<title>cluster_RBAC</title>
<polygon fill="none" stroke="black" stroke-dasharray="5,2" points="193.69,-240.21 193.69,-394.21 981.23,-394.21 981.23,-240.21 193.69,-240.21"/>
<text text-anchor="middle" x="587.46" y="-379.01" font-family="Times,serif" font-size="14.00">RBAC Model</text>
</g>
<g id="clust2" class="cluster">
<title>cluster_ABAC</title>
<polygon fill="none" stroke="black" stroke-dasharray="5,2" points="153.19,-34.21 153.19,-188.21 993.69,-188.21 993.69,-34.21 153.19,-34.21"/>
<text text-anchor="middle" x="573.44" y="-173.01" font-family="Times,serif" font-size="14.00">ABAC Model</text>
</g>
<!-- user -->
<g id="node1" class="node">
<title>user</title>
<ellipse fill="none" stroke="black" cx="48.1" cy="-23.21" rx="48.19" ry="18"/>
<text text-anchor="start" x="19.1" y="-20.51" font-family="Helvetica,sans-Serif" font-style="italic" font-size="14.00">u</text>
<text text-anchor="start" x="29.1" y="-20.51" font-family="Helvetica,sans-Serif" font-size="14.00"> (User)</text>
</g>
<!-- role -->
<g id="node2" class="node">
<title>role</title>
<ellipse fill="none" stroke="black" cx="355.19" cy="-345.21" rx="44.39" ry="18"/>
<text text-anchor="start" x="329.19" y="-342.51" font-family="Helvetica,sans-Serif" font-style="italic" font-size="14.00">r</text>
<text text-anchor="start" x="336.19" y="-342.51" font-family="Helvetica,sans-Serif" font-size="14.00"> (Role)</text>
</g>
<!-- user&#45;&gt;role -->
<g id="edge3" class="edge">
<title>user&#45;&gt;role</title>
<path fill="none" stroke="black" d="M49.93,-41.52C53.29,-92.24 70.06,-235.48 153.19,-306.21 194.13,-341.05 256.84,-348.34 301.31,-348.47"/>
<polygon fill="black" stroke="black" points="301.39,-351.97 311.36,-348.38 301.33,-344.97 301.39,-351.97"/>
<text text-anchor="middle" x="128.69" y="-286.21" font-family="Helvetica,sans-Serif" font-size="10.00">B</text>
</g>
<!-- ABACAllow -->
<g id="node5" class="node">
<title>ABACAllow</title>
<polygon fill="none" stroke="black" points="985.69,-90.21 808.69,-90.21 808.69,-54.21 985.69,-54.21 985.69,-90.21"/>
<text text-anchor="start" x="816.69" y="-69.51" font-family="Helvetica,sans-Serif" font-style="italic" font-size="14.00">π (ABAC decision logic)</text>
</g>
<!-- user&#45;&gt;ABACAllow -->
<g id="edge4" class="edge">
<title>user&#45;&gt;ABACAllow</title>
<path fill="none" stroke="black" d="M92.79,-16.53C111.37,-14.01 133.29,-11.45 153.19,-10.21 328.85,0.71 373.88,5.33 549.19,-10.21 638.09,-18.09 738.3,-37.11 808.1,-52.03"/>
<polygon fill="black" stroke="black" points="807.66,-55.51 818.17,-54.19 809.13,-48.67 807.66,-55.51"/>
<text text-anchor="middle" x="355.19" y="-13.21" font-family="Helvetica,sans-Serif" font-size="10.00">User attributes (roles)</text>
</g>
<!-- perm -->
<g id="node3" class="node">
<title>perm</title>
<ellipse fill="none" stroke="black" cx="897.19" cy="-345.21" rx="76.09" ry="18"/>
<text text-anchor="start" x="846.69" y="-342.51" font-family="Helvetica,sans-Serif" font-style="italic" font-size="14.00">p</text>
<text text-anchor="start" x="856.69" y="-342.51" font-family="Helvetica,sans-Serif" font-size="14.00"> (Permission)</text>
</g>
<!-- role&#45;&gt;perm -->
<g id="edge1" class="edge">
<title>role&#45;&gt;perm</title>
<path fill="none" stroke="black" d="M399.47,-345.21C488.51,-345.21 693.63,-345.21 810.53,-345.21"/>
<polygon fill="black" stroke="black" points="810.87,-348.71 820.87,-345.21 810.87,-341.71 810.87,-348.71"/>
<text text-anchor="middle" x="653.69" y="-348.21" font-family="Helvetica,sans-Serif" font-size="10.00">A</text>
</g>
<!-- Perms_RBAC -->
<g id="node4" class="node">
<title>Perms_RBAC</title>
<polygon fill="none" stroke="black" points="508.69,-284.21 201.69,-284.21 201.69,-248.21 508.69,-248.21 508.69,-284.21"/>
<text text-anchor="start" x="209.69" y="-263.51" font-family="Helvetica,sans-Serif" font-style="italic" font-size="14.00">Perms</text>
<text text-anchor="start" x="253.69" y="-263.51" font-family="Helvetica,sans-Serif" baseline-shift="sub" font-size="14.00">RBAC</text>
<text text-anchor="start" x="286.69" y="-263.51" font-family="Helvetica,sans-Serif" font-style="italic" font-size="14.00">(u) = p | ∃ r: (u,r)∈B ∧ (r,p)∈A</text>
</g>
<!-- Delta -->
<g id="node8" class="node">
<title>Delta</title>
<polygon fill="none" stroke="black" points="1036.19,-232.21 758.19,-232.21 758.19,-196.21 1036.19,-196.21 1036.19,-232.21"/>
<text text-anchor="start" x="766.19" y="-211.51" font-family="Helvetica,sans-Serif" font-style="italic" font-size="14.00">Δ(u) = Perms</text>
<text text-anchor="start" x="860.19" y="-211.51" font-family="Helvetica,sans-Serif" baseline-shift="sub" font-size="14.00">RBAC</text>
<text text-anchor="start" x="893.19" y="-211.51" font-family="Helvetica,sans-Serif" font-style="italic" font-size="14.00">(u) ∖ Perms</text>
<text text-anchor="start" x="975.19" y="-211.51" font-family="Helvetica,sans-Serif" baseline-shift="sub" font-size="14.00">ABAC</text>
<text text-anchor="start" x="1008.19" y="-211.51" font-family="Helvetica,sans-Serif" font-style="italic" font-size="14.00">(u)</text>
</g>
<!-- Perms_RBAC&#45;&gt;Delta -->
<g id="edge5" class="edge">
<title>Perms_RBAC&#45;&gt;Delta</title>
<path fill="none" stroke="black" d="M508.77,-251.52C583.53,-244.32 673.22,-235.68 747.46,-228.53"/>
<polygon fill="black" stroke="black" points="748.21,-231.98 757.83,-227.54 747.54,-225.01 748.21,-231.98"/>
<text text-anchor="middle" x="653.69" y="-246.21" font-family="Helvetica,sans-Serif" font-size="10.00">RBAC&#45;only privileges</text>
</g>
<!-- phi -->
<g id="node6" class="node">
<title>phi</title>
<ellipse fill="none" stroke="black" cx="355.19" cy="-60.21" rx="60.39" ry="18"/>
<text text-anchor="start" x="316.69" y="-57.51" font-family="Helvetica,sans-Serif" font-style="italic" font-size="14.00">φ</text>
<text text-anchor="start" x="326.69" y="-57.51" font-family="Helvetica,sans-Serif" font-size="14.00">(u, res, a)</text>
</g>
<!-- phi&#45;&gt;ABACAllow -->
<g id="edge2" class="edge">
<title>phi&#45;&gt;ABACAllow</title>
<path fill="none" stroke="black" stroke-dasharray="5,2" d="M415.53,-61.53C507.72,-63.58 686.35,-67.55 797.97,-70.03"/>
<polygon fill="black" stroke="black" points="798.15,-73.53 808.23,-70.26 798.31,-66.54 798.15,-73.53"/>
<text text-anchor="start" x="578.19" y="-72.21" font-family="Helvetica,sans-Serif" font-size="10.00">Deny if ¬ </text>
<text text-anchor="start" x="628.19" y="-72.21" font-family="Helvetica,sans-Serif" font-style="italic" font-size="10.00">φ</text>
<text text-anchor="start" x="635.19" y="-72.21" font-family="Helvetica,sans-Serif" font-size="10.00"> (excluded in </text>
<text text-anchor="start" x="702.19" y="-72.21" font-family="Helvetica,sans-Serif" font-style="italic" font-size="10.00">π</text>
<text text-anchor="start" x="709.19" y="-72.21" font-family="Helvetica,sans-Serif" baseline-shift="sub" font-size="10.00">bad</text>
<text text-anchor="start" x="725.19" y="-72.21" font-family="Helvetica,sans-Serif" font-size="10.00">)</text>
</g>
<!-- Perms_ABAC -->
<g id="node7" class="node">
<title>Perms_ABAC</title>
<polygon fill="none" stroke="black" points="549.19,-157.21 161.19,-157.21 161.19,-121.21 549.19,-121.21 549.19,-157.21"/>
<text text-anchor="start" x="169.19" y="-136.51" font-family="Helvetica,sans-Serif" font-style="italic" font-size="14.00">Perms</text>
<text text-anchor="start" x="213.19" y="-136.51" font-family="Helvetica,sans-Serif" baseline-shift="sub" font-size="14.00">ABAC</text>
<text text-anchor="start" x="246.19" y="-136.51" font-family="Helvetica,sans-Serif" font-style="italic" font-size="14.00">(u) = (res, a) | ABACAllow(u,res,a)=Permit</text>
</g>
<!-- Perms_ABAC&#45;&gt;Delta -->
<g id="edge6" class="edge">
<title>Perms_ABAC&#45;&gt;Delta</title>
<path fill="none" stroke="black" stroke-dasharray="5,2" d="M485.88,-157.22C569.1,-168.78 676.95,-183.76 761.19,-195.46"/>
<polygon fill="black" stroke="black" points="765.89,-191.07 764.51,-200.97 762.53,-200.7 763.91,-190.79 765.89,-191.07"/>
<polyline fill="none" stroke="black" points="766.19,-196.16 761.24,-195.47 "/>
<text text-anchor="middle" x="653.69" y="-192.21" font-family="Helvetica,sans-Serif" font-size="10.00">Revoked by ABAC</text>
</g>
</g>
</svg>
