<?xml version="1.0" encoding="UTF-8" standalone="no"?>
<!DOCTYPE svg PUBLIC "-//W3C//DTD SVG 1.1//EN"
 "http://www.w3.org/Graphics/SVG/1.1/DTD/svg11.dtd">
<!-- Generated by graphviz version 2.43.0 (0)
 -->
<!-- Title: RBAC_ABAC_diagram Pages: 1 -->
<svg width="1350pt" height="428pt"
 viewBox="0.00 0.00 1350.19 428.00" xmlns="http://www.w3.org/2000/svg" xmlns:xlink="http://www.w3.org/1999/xlink">
<g id="graph0" class="graph" transform="scale(1 1) rotate(0) translate(4 424)">
<title>RBAC_ABAC_diagram</title>
<polygon fill="white" stroke="transparent" points="-4,4 -4,-424 1346.19,-424 1346.19,4 -4,4"/>
<g id="clust1" class="cluster">
<title>cluster_RBAC</title>
<polygon fill="#f0ffff" stroke="black" points="193.69,-258 193.69,-412 933.23,-412 933.23,-258 193.69,-258"/>
<text text-anchor="middle" x="563.46" y="-396.8" font-family="Times,serif" font-size="14.00">RBAC Model</text>
</g>
<g id="clust2" class="cluster">
<title>cluster_ABAC</title>
<polygon fill="honeydew" stroke="black" points="153.19,-8 153.19,-202 1334.19,-202 1334.19,-8 153.19,-8"/>
<text text-anchor="middle" x="743.69" y="-186.8" font-family="Times,serif" font-size="14.00">ABAC Model + Negative Testing</text>
</g>
<!-- user -->
<g id="node1" class="node">
<title>user</title>
<ellipse fill="lightgrey" stroke="black" cx="48.1" cy="-37" rx="48.19" ry="18"/>
<text text-anchor="start" x="19.1" y="-34.3" font-family="Helvetica,sans-Serif" font-style="italic" font-size="14.00">u</text>
<text text-anchor="start" x="29.1" y="-34.3" font-family="Helvetica,sans-Serif" font-size="14.00"> (User)</text>
</g>
<!-- role -->
<g id="node2" class="node">
<title>role</title>
<ellipse fill="lightblue" stroke="black" cx="355.19" cy="-363" rx="44.39" ry="18"/>
<text text-anchor="start" x="329.19" y="-360.3" font-family="Helvetica,sans-Serif" font-style="italic" font-size="14.00">r</text>
<text text-anchor="start" x="336.19" y="-360.3" font-family="Helvetica,sans-Serif" font-size="14.00"> (Role)</text>
</g>
<!-- user&#45;&gt;role -->
<g id="edge5" class="edge">
<title>user&#45;&gt;role</title>
<path fill="none" stroke="black" d="M49.82,-55.19C52.89,-106.28 68.99,-252.02 153.19,-324 194.05,-358.93 256.78,-366.2 301.27,-366.3"/>
<polygon fill="black" stroke="black" points="301.36,-369.8 311.32,-366.2 301.29,-362.8 301.36,-369.8"/>
<text text-anchor="middle" x="128.69" y="-303" font-family="Helvetica,sans-Serif" font-size="10.00">B</text>
</g>
<!-- Verify -->
<g id="node5" class="node">
<title>Verify</title>
<polygon fill="palegoldenrod" stroke="black" points="946.52,-45 897.85,-74.29 800.53,-74.29 751.87,-45 800.53,-15.71 897.85,-15.71 946.52,-45"/>
<text text-anchor="start" x="819.19" y="-48.8" font-family="Helvetica,sans-Serif" font-style="italic" font-size="14.00">Verify</text>
<text text-anchor="start" x="860.19" y="-48.8" font-family="Helvetica,sans-Serif" font-size="14.00">(π)</text>
<text text-anchor="start" x="797.69" y="-34.8" font-family="Helvetica,sans-Serif" font-size="14.00">(total function)</text>
</g>
<!-- user&#45;&gt;Verify -->
<g id="edge6" class="edge">
<title>user&#45;&gt;Verify</title>
<path fill="none" stroke="black" d="M92.79,-30.32C111.37,-27.8 133.29,-25.24 153.19,-24 367.78,-10.65 620.19,-26.04 753.92,-36.64"/>
<polygon fill="black" stroke="black" points="753.88,-40.15 764.13,-37.46 754.44,-33.17 753.88,-40.15"/>
<text text-anchor="middle" x="355.19" y="-27" font-family="Helvetica,sans-Serif" font-size="10.00">User attributes → Verify</text>
</g>
<!-- perm -->
<g id="node3" class="node">
<title>perm</title>
<ellipse fill="lightblue" stroke="black" cx="849.19" cy="-363" rx="76.09" ry="18"/>
<text text-anchor="start" x="798.69" y="-360.3" font-family="Helvetica,sans-Serif" font-style="italic" font-size="14.00">p</text>
<text text-anchor="start" x="808.69" y="-360.3" font-family="Helvetica,sans-Serif" font-size="14.00"> (Permission)</text>
</g>
<!-- role&#45;&gt;perm -->
<g id="edge1" class="edge">
<title>role&#45;&gt;perm</title>
<path fill="none" stroke="black" d="M399.42,-363C480.52,-363 656.82,-363 762.7,-363"/>
<polygon fill="black" stroke="black" points="762.72,-366.5 772.72,-363 762.72,-359.5 762.72,-366.5"/>
<text text-anchor="middle" x="629.69" y="-366" font-family="Helvetica,sans-Serif" font-size="10.00">A</text>
</g>
<!-- Perms_RBAC -->
<g id="node4" class="node">
<title>Perms_RBAC</title>
<polygon fill="lightblue" stroke="black" points="508.69,-302 201.69,-302 201.69,-266 508.69,-266 508.69,-302"/>
<text text-anchor="start" x="209.69" y="-281.3" font-family="Helvetica,sans-Serif" font-style="italic" font-size="14.00">Perms</text>
<text text-anchor="start" x="253.69" y="-281.3" font-family="Helvetica,sans-Serif" baseline-shift="sub" font-size="14.00">RBAC</text>
<text text-anchor="start" x="286.69" y="-281.3" font-family="Helvetica,sans-Serif" font-style="italic" font-size="14.00">(u) = p | ∃ r: (u,r)∈B ∧ (r,p)∈A</text>
</g>
<!-- Delta -->
<g id="node9" class="node">
<title>Delta</title>
<polygon fill="moccasin" stroke="black" points="988.19,-250 710.19,-250 710.19,-214 988.19,-214 988.19,-250"/>
<text text-anchor="start" x="718.19" y="-229.3" font-family="Helvetica,sans-Serif" font-style="italic" font-size="14.00">Δ(u) = Perms</text>
<text text-anchor="start" x="812.19" y="-229.3" font-family="Helvetica,sans-Serif" baseline-shift="sub" font-size="14.00">RBAC</text>
<text text-anchor="start" x="845.19" y="-229.3" font-family="Helvetica,sans-Serif" font-style="italic" font-size="14.00">(u) ∖ Perms</text>
<text text-anchor="start" x="927.19" y="-229.3" font-family="Helvetica,sans-Serif" baseline-shift="sub" font-size="14.00">ABAC</text>
<text text-anchor="start" x="960.19" y="-229.3" font-family="Helvetica,sans-Serif" font-style="italic" font-size="14.00">(u)</text>
</g>
<!-- Perms_RBAC&#45;&gt;Delta -->
<g id="edge7" class="edge">
<title>Perms_RBAC&#45;&gt;Delta</title>
<path fill="none" stroke="blue" d="M508.83,-267.87C569.77,-261.43 639.68,-254.04 700.15,-247.65"/>
<polygon fill="blue" stroke="blue" points="700.59,-251.12 710.16,-246.59 699.85,-244.16 700.59,-251.12"/>
<text text-anchor="middle" x="629.69" y="-262" font-family="Helvetica,sans-Serif" font-size="10.00">RBAC&#45;only privileges</text>
</g>
<!-- ABACAllow -->
<g id="node6" class="node">
<title>ABACAllow</title>
<polygon fill="lightgreen" stroke="black" points="1326.19,-145 1149.19,-145 1149.19,-109 1326.19,-109 1326.19,-145"/>
<text text-anchor="start" x="1157.19" y="-124.3" font-family="Helvetica,sans-Serif" font-style="italic" font-size="14.00">π (ABAC decision logic)</text>
</g>
<!-- Verify&#45;&gt;ABACAllow -->
<g id="edge3" class="edge">
<title>Verify&#45;&gt;ABACAllow</title>
<path fill="none" stroke="black" d="M921.53,-60.14C983.48,-73.28 1073.69,-92.42 1141.74,-106.85"/>
<polygon fill="black" stroke="black" points="1141.1,-110.3 1151.61,-108.95 1142.55,-103.45 1141.1,-110.3"/>
<text text-anchor="middle" x="1068.69" y="-103" font-family="Helvetica,sans-Serif" font-size="10.00">only if π well&#45;formed</text>
</g>
<!-- phi -->
<g id="node7" class="node">
<title>phi</title>
<ellipse fill="lightgreen" stroke="black" cx="355.19" cy="-74" rx="60.39" ry="18"/>
<text text-anchor="start" x="316.69" y="-71.3" font-family="Helvetica,sans-Serif" font-style="italic" font-size="14.00">φ</text>
<text text-anchor="start" x="326.69" y="-71.3" font-family="Helvetica,sans-Serif" font-size="14.00">(u, res, a)</text>
</g>
<!-- phi&#45;&gt;Verify -->
<g id="edge4" class="edge">
<title>phi&#45;&gt;Verify</title>
<path fill="none" stroke="black" d="M414.56,-70.56C497.25,-65.69 649.57,-56.71 749.87,-50.8"/>
<polygon fill="black" stroke="black" points="750.24,-54.28 760.02,-50.2 749.83,-47.29 750.24,-54.28"/>
<text text-anchor="middle" x="629.69" y="-63" font-family="Helvetica,sans-Serif" font-size="10.00">invariants ⇒ </text>
</g>
<!-- phi&#45;&gt;ABACAllow -->
<g id="edge2" class="edge">
<title>phi&#45;&gt;ABACAllow</title>
<path fill="none" stroke="black" stroke-dasharray="5,2" d="M413.61,-78.93C528.25,-88.59 793.7,-110 1017.19,-121 1057.04,-122.96 1100.99,-124.32 1139.02,-125.24"/>
<polygon fill="black" stroke="black" points="1138.99,-128.74 1149.07,-125.48 1139.16,-121.75 1138.99,-128.74"/>
<text text-anchor="start" x="773.69" y="-123" font-family="Helvetica,sans-Serif" font-size="10.00">Deny if ¬ </text>
<text text-anchor="start" x="823.69" y="-123" font-family="Helvetica,sans-Serif" font-style="italic" font-size="10.00">φ</text>
<text text-anchor="start" x="830.69" y="-123" font-family="Helvetica,sans-Serif" font-size="10.00"> (excluded in </text>
<text text-anchor="start" x="897.69" y="-123" font-family="Helvetica,sans-Serif" font-style="italic" font-size="10.00">π</text>
<text text-anchor="start" x="904.69" y="-123" font-family="Helvetica,sans-Serif" baseline-shift="sub" font-size="10.00">bad</text>
<text text-anchor="start" x="920.69" y="-123" font-family="Helvetica,sans-Serif" font-size="10.00">)</text>
</g>
<!-- Perms_ABAC -->
<g id="node8" class="node">
<title>Perms_ABAC</title>
<polygon fill="lightgreen" stroke="black" points="549.19,-171 161.19,-171 161.19,-135 549.19,-135 549.19,-171"/>
<text text-anchor="start" x="169.19" y="-150.3" font-family="Helvetica,sans-Serif" font-style="italic" font-size="14.00">Perms</text>
<text text-anchor="start" x="213.19" y="-150.3" font-family="Helvetica,sans-Serif" baseline-shift="sub" font-size="14.00">ABAC</text>
<text text-anchor="start" x="246.19" y="-150.3" font-family="Helvetica,sans-Serif" font-style="italic" font-size="14.00">(u) = (res, a) | ABACAllow(u,res,a)=Permit</text>
</g>
<!-- Perms_ABAC&#45;&gt;Delta -->
<g id="edge8" class="edge">
<title>Perms_ABAC&#45;&gt;Delta</title>
<path fill="none" stroke="darkgreen" stroke-dasharray="5,2" d="M467.79,-171.01C537.47,-182.25 629.06,-197 710.19,-210 716.59,-211.02 723.15,-212.07 729.77,-213.13"/>
<polygon fill="darkgreen" stroke="darkgreen" points="734.65,-208.85 733.07,-218.72 731.1,-218.41 732.68,-208.53 734.65,-208.85"/>
<polyline fill="none" stroke="darkgreen" points="734.85,-213.95 729.91,-213.16 "/>
<text text-anchor="middle" x="629.69" y="-206" font-family="Helvetica,sans-Serif" font-size="10.00">Revoked by ABAC</text>
</g>
</g>
</svg>
