<?xml version="1.0" encoding="UTF-8" standalone="no"?>
<!DOCTYPE svg PUBLIC "-//W3C//DTD SVG 1.1//EN"
 "http://www.w3.org/Graphics/SVG/1.1/DTD/svg11.dtd">
<!-- Generated by graphviz version 2.43.0 (0)
 -->
<!-- Title: smt_flow Pages: 1 -->
<svg width="254pt" height="338pt"
 viewBox="0.00 0.00 254.00 338.00" xmlns="http://www.w3.org/2000/svg" xmlns:xlink="http://www.w3.org/1999/xlink">
<g id="graph0" class="graph" transform="scale(1 1) rotate(0) translate(4 334)">
<title>smt_flow</title>
<polygon fill="white" stroke="transparent" points="-4,4 -4,-334 250,-334 250,4 -4,4"/>
<!-- parse -->
<g id="node1" class="node">
<title>parse</title>
<path fill="none" stroke="black" d="M197.5,-330C197.5,-330 48.5,-330 48.5,-330 42.5,-330 36.5,-324 36.5,-318 36.5,-318 36.5,-304 36.5,-304 36.5,-298 42.5,-292 48.5,-292 48.5,-292 197.5,-292 197.5,-292 203.5,-292 209.5,-298 209.5,-304 209.5,-304 209.5,-318 209.5,-318 209.5,-324 203.5,-330 197.5,-330"/>
<text text-anchor="middle" x="123" y="-314.8" font-family="Helvetica,sans-Serif" font-size="14.00">Parse policy YAML files</text>
<text text-anchor="middle" x="123" y="-299.8" font-family="Helvetica,sans-Serif" font-size="14.00">(+ invariants)</text>
</g>
<!-- encode -->
<g id="node2" class="node">
<title>encode</title>
<path fill="none" stroke="black" d="M234,-256C234,-256 12,-256 12,-256 6,-256 0,-250 0,-244 0,-244 0,-232 0,-232 0,-226 6,-220 12,-220 12,-220 234,-220 234,-220 240,-220 246,-226 246,-232 246,-232 246,-244 246,-244 246,-250 240,-256 234,-256"/>
<text text-anchor="middle" x="123" y="-234.3" font-family="Helvetica,sans-Serif" font-size="14.00">Compile policies to SMT formulas</text>
</g>
<!-- parse&#45;&gt;encode -->
<g id="edge1" class="edge">
<title>parse&#45;&gt;encode</title>
<path fill="none" stroke="black" d="M123,-291.72C123,-283.97 123,-274.79 123,-266.27"/>
<polygon fill="black" stroke="black" points="126.5,-266 123,-256 119.5,-266 126.5,-266"/>
</g>
<!-- solve -->
<g id="node3" class="node">
<title>solve</title>
<path fill="none" stroke="black" d="M215.5,-184C215.5,-184 30.5,-184 30.5,-184 24.5,-184 18.5,-178 18.5,-172 18.5,-172 18.5,-160 18.5,-160 18.5,-154 24.5,-148 30.5,-148 30.5,-148 215.5,-148 215.5,-148 221.5,-148 227.5,-154 227.5,-160 227.5,-160 227.5,-172 227.5,-172 227.5,-178 221.5,-184 215.5,-184"/>
<text text-anchor="middle" x="123" y="-162.3" font-family="Helvetica,sans-Serif" font-size="14.00">Query SMT solver (e.g., Z3)</text>
</g>
<!-- encode&#45;&gt;solve -->
<g id="edge2" class="edge">
<title>encode&#45;&gt;solve</title>
<path fill="none" stroke="black" d="M123,-219.7C123,-211.98 123,-202.71 123,-194.11"/>
<polygon fill="black" stroke="black" points="126.5,-194.1 123,-184.1 119.5,-194.1 126.5,-194.1"/>
</g>
<!-- result -->
<g id="node4" class="node">
<title>result</title>
<path fill="none" stroke="black" d="M205.5,-112C205.5,-112 40.5,-112 40.5,-112 34.5,-112 28.5,-106 28.5,-100 28.5,-100 28.5,-86 28.5,-86 28.5,-80 34.5,-74 40.5,-74 40.5,-74 205.5,-74 205.5,-74 211.5,-74 217.5,-80 217.5,-86 217.5,-86 217.5,-100 217.5,-100 217.5,-106 211.5,-112 205.5,-112"/>
<text text-anchor="middle" x="123" y="-96.8" font-family="Helvetica,sans-Serif" font-size="14.00">Solver result: SAT/UNSAT</text>
<text text-anchor="middle" x="123" y="-81.8" font-family="Helvetica,sans-Serif" font-size="14.00">(+ model if SAT)</text>
</g>
<!-- solve&#45;&gt;result -->
<g id="edge3" class="edge">
<title>solve&#45;&gt;result</title>
<path fill="none" stroke="black" d="M123,-147.81C123,-140.11 123,-130.82 123,-122.15"/>
<polygon fill="black" stroke="black" points="126.5,-122.02 123,-112.02 119.5,-122.02 126.5,-122.02"/>
</g>
<!-- explain -->
<g id="node5" class="node">
<title>explain</title>
<path fill="none" stroke="black" d="M208,-38C208,-38 38,-38 38,-38 32,-38 26,-32 26,-26 26,-26 26,-12 26,-12 26,-6 32,0 38,0 38,0 208,0 208,0 214,0 220,-6 220,-12 220,-12 220,-26 220,-26 220,-32 214,-38 208,-38"/>
<text text-anchor="middle" x="123" y="-22.8" font-family="Helvetica,sans-Serif" font-size="14.00">Interpret counterexample</text>
<text text-anchor="middle" x="123" y="-7.8" font-family="Helvetica,sans-Serif" font-size="14.00">(if model found)</text>
</g>
<!-- result&#45;&gt;explain -->
<g id="edge4" class="edge">
<title>result&#45;&gt;explain</title>
<path fill="none" stroke="black" d="M123,-73.83C123,-66.13 123,-56.97 123,-48.42"/>
<polygon fill="black" stroke="black" points="126.5,-48.41 123,-38.41 119.5,-48.41 126.5,-48.41"/>
</g>
</g>
</svg>
